<?xml version="1.0" encoding="UTF-8"?>
<svg id="Layer_2" data-name="Layer 2" xmlns="http://www.w3.org/2000/svg" viewBox="0 0 1705.67 378.18">
  <defs>
    <style>
      .cls-1 {
        fill: #fff;
      }

      .cls-2 {
        fill: #00ccfe;
      }
    </style>
  </defs>
  <g id="Layer_1-2" data-name="Layer 1">
    <g>
      <path class="cls-1" d="M192.79,216.39H0V.16h75.26v163.18h117.53v53.06Z"/>
      <path class="cls-1" d="M627.73,216.39h-138.19L440.18.16h76.79l34.87,163.18h13.56L599.96.16h77.12l-49.35,216.24Z"/>
      <g>
        <rect class="cls-1" x="732.01" y=".16" width="184.76" height="53.06"/>
        <rect class="cls-1" x="680.6" y="163.34" width="184.76" height="53.06"/>
        <rect class="cls-1" x="706.3" y="81.59" width="184.76" height="53.06"/>
      </g>
      <path class="cls-1" d="M1137.49,216.32h-192.79V.08h75.26v163.18h117.53v53.06Z"/>
      <path class="cls-2" d="M1450.88,174.05c0,13.37-3.49,23.75-10.47,31.15-7,7.41-17.9,11.11-32.71,11.11h-143.74c-14.81,0-25.71-3.7-32.71-11.11-6.98-7.41-10.47-17.79-10.47-31.15V.08h72.77v155.48c0,2.26.73,4.1,2.18,5.55,1.43,1.44,3.26,2.16,5.55,2.16h69.08c2.26,0,4.12-.72,5.55-2.16,1.46-1.44,2.16-3.29,2.16-5.55V.08h72.8v173.98Z"/>
      <path class="cls-2" d="M1665.28.08h-189.7v216.24h72.77V53.13h84.85c2.26,0,4.09.73,5.55,2.16,1.43,1.44,2.16,3.3,2.16,5.56v36.7c0,2.27-.73,4.12-2.16,5.56-1.46,1.43-3.29,2.16-5.55,2.16h-56.47v53.06h88.55c5.75,0,11.1-1.08,16.04-3.24,4.92-2.16,9.19-5.1,12.8-8.8,3.59-3.7,6.43-8.02,8.46-12.95,2.06-4.73,3.09-9.66,3.09-14.81V.08h-40.39Z"/>
      <path class="cls-1" d="M422.11,53.06h-126.47v28.38h113.21v53.06h-113.21v28.69h126.47v53.06h-198.01V0h198.01v53.06Z"/>
    </g>
    <g>
      <path class="cls-1" d="M825.79,300.68h-66.48v77.5h22.97v-23.83h32.46c1.86,0,3.49.69,4.84,2.04,1.35,1.36,2.04,2.99,2.04,4.85v16.95h20.42v-18.93c0-2.62-.44-4.85-1.31-6.62-.78-1.6-2.22-2.78-4.38-3.6l-4.48-1.72,4.37-1.98c2.02-.91,3.45-2.16,4.37-3.8.95-1.71,1.43-3.76,1.43-6.12v-19.76c0-4.88-1.37-8.51-4.18-11.08-2.82-2.58-6.89-3.89-12.08-3.89ZM821.63,331.46c0,1.86-.69,3.49-2.04,4.84-1.35,1.35-2.98,2.04-4.84,2.04h-32.46v-21.67h34.44c1.38,0,2.59.48,3.5,1.4.92.92,1.4,2.13,1.4,3.51v9.88Z"/>
      <polygon class="cls-1" points="622.55 347.37 665.21 347.37 665.21 331.37 622.55 331.37 622.55 316.67 670.21 316.67 670.21 300.68 599.57 300.68 599.57 378.18 670.21 378.18 670.21 362.18 622.55 362.18 622.55 347.37"/>
      <path class="cls-1" d="M492.59,362.27c0,5.68,1.52,9.64,4.64,12.09,3.23,2.53,7.8,3.82,13.59,3.82h46.27c5.79,0,10.36-1.28,13.59-3.82,3.12-2.45,4.64-6.41,4.64-12.09v-21.95h-23.44v18.93c0,1.73-1.16,2.93-2.81,2.93h-30.23c-1.66,0-2.81-1.2-2.81-2.93v-39.65c0-1.73,1.16-2.93,2.81-2.93h56.48v-16h-64.5c-5.79,0-10.36,1.28-13.59,3.82-3.12,2.45-4.64,6.41-4.64,12.09v45.69Z"/>
      <polygon class="cls-1" points="892.27 347.37 934.94 347.37 934.94 331.37 892.27 331.37 892.27 316.67 939.94 316.67 939.94 300.68 869.3 300.68 869.3 378.18 939.94 378.18 939.94 362.18 892.27 362.18 892.27 347.37"/>
      <path class="cls-1" d="M3.09,308.42c-.72,1.54-1.09,3.27-1.09,5.14v51.62c0,1.87.37,3.6,1.09,5.14.74,1.59,1.75,2.99,2.99,4.16,1.23,1.17,2.72,2.08,4.44,2.72,1.74.65,3.68.98,5.76.98h62.41v-16H28.25c-1.66,0-2.81-1.2-2.81-2.93v-39.65c0-1.73,1.16-2.93,2.81-2.93h28.04v11.86h22.39v-27.86H16.28c-2.07,0-4.01.33-5.75.98-1.72.64-3.23,1.55-4.46,2.68-1.23,1.13-2.23,2.51-2.97,4.08Z"/>
      <polygon class="cls-1" points="420.67 347.37 463.34 347.37 463.34 331.37 420.67 331.37 420.67 316.67 468.34 316.67 468.34 300.68 397.7 300.68 397.7 378.18 468.34 378.18 468.34 362.18 420.67 362.18 420.67 347.37"/>
      <path class="cls-1" d="M1137.6,300.68h-66.48v77.5h22.39v-23.83h33.04c1.86,0,3.49.69,4.84,2.04,1.35,1.36,2.04,2.99,2.04,4.84v16.95h20.41v-18.93c0-2.62-.44-4.85-1.31-6.62-.78-1.6-2.22-2.78-4.38-3.6l-4.48-1.72,4.37-1.98c2.02-.91,3.45-2.16,4.37-3.8.95-1.71,1.43-3.76,1.43-6.12v-19.76c0-4.88-1.37-8.51-4.18-11.08-2.82-2.58-6.89-3.89-12.08-3.89ZM1133.44,331.46c0,1.86-.69,3.49-2.04,4.84-1.35,1.35-2.98,2.04-4.84,2.04h-33.04v-21.67h33.04c1.61,0,3.06.3,4.29.89,1.67.8,2.59,2.23,2.59,4.01v9.88Z"/>
      <path class="cls-1" d="M175.44,300.68h-52.32c-5.75,0-10.1,1.51-12.9,4.49-2.88,3.05-4.28,7.13-4.28,12.46v43.6c0,5.26,1.4,9.32,4.29,12.41,2.81,3.01,7.15,4.54,12.9,4.54h52.32c5.82,0,10.17-1.54,12.94-4.58v-.02c2.86-3.05,4.24-7.1,4.24-12.36v-43.6c0-5.34-1.38-9.42-4.23-12.47-2.77-2.97-7.13-4.48-12.95-4.48ZM170.69,357.27c0,1.38-.48,2.59-1.4,3.51-.92.92-2.09,1.4-3.39,1.4h-33.13c-1.38,0-2.59-.48-3.51-1.4-.91-.91-1.4-2.12-1.4-3.5v-35.69c0-1.38.48-2.59,1.4-3.51.92-.92,2.13-1.4,3.51-1.4h33.13c1.3,0,2.47.48,3.39,1.4.92.92,1.4,2.13,1.4,3.51v35.69Z"/>
      <polygon class="cls-1" points="240.24 300.68 215.87 300.68 215.87 378.18 284.53 378.18 284.53 362.18 240.24 362.18 240.24 300.68"/>
      <polygon class="cls-1" points="329.15 300.68 304.79 300.68 304.79 378.18 373.45 378.18 373.45 362.18 329.15 362.18 329.15 300.68"/>
      <path class="cls-1" d="M968.28,308.42c-.72,1.54-1.09,3.27-1.09,5.14v51.62c0,1.87.37,3.6,1.09,5.14.74,1.59,1.75,2.99,2.99,4.16,1.23,1.17,2.72,2.08,4.44,2.72,1.74.65,3.68.98,5.75.98h62.41v-16h-50.43c-1.66,0-2.81-1.2-2.81-2.93v-39.65c0-1.73,1.16-2.93,2.81-2.93h28.04v11.86h22.39v-27.86h-62.41c-2.07,0-4.01.33-5.76.98-1.72.64-3.23,1.55-4.46,2.68-1.23,1.13-2.23,2.51-2.97,4.08Z"/>
      <polygon class="cls-1" points="1373.4 378.18 1396.26 378.18 1396.26 316.67 1422.19 316.67 1422.19 300.68 1347.48 300.68 1347.48 316.67 1373.4 316.67 1373.4 378.18"/>
      <rect class="cls-1" x="1293.42" y="300.68" width="24.37" height="77.5"/>
      <polygon class="cls-1" points="1505.82 300.68 1505.82 378.18 1527.75 378.18 1527.75 315.63 1556.26 378.18 1590.53 378.18 1590.53 300.68 1568.6 300.68 1568.6 363.23 1540.09 300.68 1505.82 300.68"/>
      <path class="cls-1" d="M1644.03,316.67h56.48v-16h-64.5c-5.79,0-10.36,1.28-13.59,3.82-3.12,2.45-4.64,6.41-4.64,12.09v45.69c0,5.68,1.52,9.64,4.64,12.09,3.23,2.53,7.8,3.82,13.59,3.82h46.27c5.79,0,10.36-1.28,13.59-3.82,3.12-2.45,4.64-6.4,4.64-12.09v-21.95h-23.44v18.93c0,1.73-1.16,2.93-2.81,2.93h-30.23c-1.66,0-2.81-1.2-2.81-2.93v-39.65c0-1.73,1.16-2.93,2.81-2.93Z"/>
      <rect class="cls-1" x="1451.76" y="300.68" width="24.37" height="77.5"/>
      <path class="cls-1" d="M1205.94,360.78c-.91-.91-1.4-2.12-1.4-3.5v-56.6h-23.44v63.57c0,4.49,1.15,7.98,3.41,10.37,2.23,2.36,5.89,3.56,10.87,3.56h54.18c4.98,0,8.64-1.2,10.87-3.56,2.26-2.39,3.41-5.88,3.41-10.37v-63.57h-23.44v56.6c0,1.38-.48,2.59-1.4,3.51-.92.92-2.13,1.4-3.51,1.4h-26.04c-1.38,0-2.6-.48-3.51-1.4Z"/>
    </g>
  </g>
</svg>